<?xml version="1.0" standalone="no"?>
<!DOCTYPE svg PUBLIC "-//W3C//DTD SVG 20010904//EN"
 "http://www.w3.org/TR/2001/REC-SVG-20010904/DTD/svg10.dtd">
<svg version="1.0" xmlns="http://www.w3.org/2000/svg"
 width="1024.000000pt" height="1024.000000pt" viewBox="0 0 1024.000000 1024.000000"
 preserveAspectRatio="xMidYMid meet">
<metadata>
Created by potrace 1.11, written by Peter Selinger 2001-2013
</metadata>
<g transform="translate(0.000000,1024.000000) scale(0.100000,-0.100000)"
fill="#000000" stroke="none">
<path d="M5099 10165 c-1 -5 -1 -13 0 -17 0 -3 -13 -3 -29 2 -18 5 -32 5 -36
-1 -4 -6 -11 -6 -19 1 -10 8 -14 8 -17 -1 -2 -7 -14 -13 -26 -14 -11 -1 -19 2
-16 6 2 4 -5 7 -16 6 -11 -1 -20 -6 -20 -12 0 -5 -4 -4 -9 4 -6 10 -13 11 -29
2 -14 -8 -23 -8 -27 -1 -5 8 -12 7 -23 -2 -13 -10 -14 -10 -8 0 6 10 1 11 -21
6 -15 -3 -36 -6 -46 -5 -11 0 -15 -5 -10 -12 3 -7 -4 -3 -17 8 -19 16 -22 17
-17 3 5 -14 1 -15 -24 -8 -16 5 -29 5 -29 0 0 -4 -9 -10 -20 -13 -11 -3 -18
-2 -15 2 2 5 -15 8 -39 7 -24 -1 -42 -4 -40 -8 2 -3 -14 -5 -36 -4 -22 2 -40
-1 -40 -5 0 -4 -17 -6 -37 -5 -28 1 -37 -3 -35 -13 2 -10 -1 -12 -10 -5 -7 6
-24 9 -38 7 -14 -2 -33 -4 -43 -4 -11 0 -15 -5 -10 -12 4 -8 1 -8 -9 1 -11 9
-18 10 -23 2 -3 -5 -21 -10 -40 -10 -18 0 -36 -6 -38 -12 -4 -10 -6 -9 -6 1
-1 11 -4 11 -16 1 -8 -7 -15 -9 -15 -6 0 4 -9 2 -19 -4 -14 -7 -21 -6 -24 3
-3 6 -6 4 -6 -7 -1 -15 -4 -16 -16 -6 -10 8 -15 9 -15 2 0 -6 -7 -9 -15 -6 -9
4 -15 0 -15 -7 0 -11 -3 -11 -10 1 -7 11 -10 12 -10 2 0 -9 -10 -12 -27 -10
-20 2 -27 -1 -25 -11 3 -12 0 -12 -12 -1 -10 8 -16 9 -16 2 0 -6 -7 -9 -15 -6
-8 4 -15 2 -15 -4 0 -11 -18 -11 -37 1 -9 5 -11 3 -7 -6 4 -10 -3 -13 -26 -12
-20 1 -34 -4 -37 -12 -5 -12 -7 -12 -14 -1 -7 10 -9 11 -9 0 0 -7 -4 -10 -10
-7 -5 3 -16 3 -22 -2 -13 -8 -33 -13 -55 -15 -7 -1 -13 -5 -13 -9 0 -5 -7 -5
-17 -2 -10 4 -14 2 -10 -4 5 -7 -1 -9 -15 -5 -16 4 -19 2 -13 -9 5 -8 5 -11 0
-7 -4 4 -15 2 -23 -5 -13 -9 -14 -9 -8 1 4 6 3 12 -3 12 -5 0 -15 -8 -20 -17
-8 -14 -10 -14 -11 -4 0 12 -3 12 -12 3 -7 -7 -20 -12 -31 -12 -10 0 -16 -4
-12 -9 3 -6 -4 -8 -15 -6 -11 2 -20 0 -20 -4 0 -4 -6 -8 -12 -9 -32 -3 -50
-10 -59 -23 -7 -11 -9 -11 -9 0 0 10 -3 11 -13 2 -8 -6 -17 -8 -20 -4 -4 3 -7
1 -7 -6 0 -8 -6 -11 -16 -7 -9 4 -13 2 -8 -5 4 -7 1 -10 -7 -7 -8 3 -20 -2
-27 -11 -10 -12 -12 -13 -6 -1 7 12 5 13 -8 3 -8 -7 -18 -10 -21 -6 -4 3 -7 0
-7 -7 0 -7 -3 -10 -6 -7 -4 4 -20 -3 -37 -15 -18 -13 -27 -16 -22 -7 6 11 5
12 -6 2 -7 -7 -21 -13 -31 -13 -10 0 -18 -4 -18 -10 0 -5 -9 -10 -20 -10 -11
0 -20 -5 -20 -11 0 -6 -9 -9 -20 -6 -11 3 -18 0 -17 -7 1 -6 -5 -12 -13 -12
-8 -1 -19 -3 -25 -4 -5 -1 -13 -2 -17 -1 -5 0 -8 -3 -8 -9 0 -5 -7 -10 -15
-10 -9 0 -18 -7 -22 -16 -5 -13 -7 -13 -14 -2 -7 10 -9 10 -9 1 0 -7 -7 -13
-16 -13 -9 0 -12 -5 -8 -12 5 -8 0 -7 -11 2 -10 8 -16 10 -12 4 4 -7 -1 -18
-10 -25 -9 -8 -14 -9 -10 -2 12 19 -25 8 -42 -14 -9 -11 -22 -18 -29 -15 -6 2
-12 -1 -12 -7 0 -6 -8 -8 -17 -4 -10 3 -15 2 -10 -2 4 -5 -11 -17 -33 -27 -22
-10 -40 -23 -40 -28 0 -5 -9 -7 -20 -5 -11 2 -18 0 -15 -4 2 -5 -3 -15 -12
-22 -12 -10 -14 -10 -9 -1 10 16 -2 15 -19 -2 -8 -7 -11 -17 -7 -20 3 -4 -1
-4 -11 0 -10 3 -17 1 -17 -6 0 -6 -4 -9 -8 -6 -5 3 -19 -4 -30 -15 -12 -10
-25 -20 -29 -20 -5 -1 -7 -5 -6 -10 2 -4 -4 -6 -12 -3 -10 4 -15 0 -15 -11 0
-9 -4 -14 -9 -11 -14 9 -42 -5 -34 -17 4 -6 0 -8 -10 -4 -10 3 -17 2 -17 -3 0
-5 -16 -17 -36 -26 -20 -10 -33 -22 -30 -29 3 -8 -2 -11 -12 -8 -10 2 -32 -10
-50 -27 -18 -16 -36 -30 -39 -30 -17 0 -73 -53 -66 -63 4 -7 0 -6 -10 2 -15
12 -17 11 -17 -3 0 -10 -3 -15 -7 -13 -11 7 -33 -19 -25 -29 4 -5 -2 -2 -12 6
-11 8 -17 10 -13 4 7 -12 -19 -29 -37 -25 -5 1 -3 -6 5 -15 9 -12 9 -15 1 -10
-7 4 -12 2 -12 -6 0 -9 -3 -9 -10 2 -8 13 -10 12 -10 -3 0 -11 -4 -15 -12 -11
-7 5 -9 2 -5 -8 3 -10 0 -15 -11 -14 -9 0 -16 -5 -14 -12 1 -6 -4 -11 -10 -10
-7 2 -12 -2 -11 -9 2 -7 -4 -10 -12 -7 -8 4 -17 -1 -21 -10 -3 -9 -10 -16 -16
-16 -5 0 -29 -20 -52 -45 -24 -25 -47 -45 -52 -45 -13 0 -104 -99 -104 -113 0
-8 -3 -8 -9 2 -7 11 -10 9 -15 -7 -4 -12 -16 -24 -26 -27 -11 -3 -28 -17 -38
-30 -11 -13 -22 -21 -26 -18 -3 3 -6 0 -6 -7 0 -7 -8 -19 -17 -27 -12 -10 -13
-12 -3 -8 8 4 6 -1 -5 -10 -11 -9 -19 -21 -17 -26 1 -6 -2 -8 -7 -5 -5 3 -19
-7 -32 -23 -13 -16 -27 -27 -31 -25 -4 3 -8 0 -8 -6 0 -5 -15 -24 -32 -41 -18
-18 -24 -25 -13 -18 18 13 19 13 6 -3 -7 -10 -20 -18 -27 -18 -8 0 -11 -6 -7
-17 4 -11 3 -14 -5 -9 -7 4 -12 2 -12 -3 0 -6 -6 -11 -14 -11 -10 0 -13 -7
-11 -20 2 -11 0 -18 -6 -15 -5 4 -9 1 -9 -5 0 -6 -5 -8 -12 -4 -8 5 -7 0 2
-11 9 -11 10 -16 2 -11 -7 4 -19 0 -28 -8 -8 -9 -12 -16 -8 -16 4 0 -3 -8 -14
-19 -12 -10 -22 -23 -22 -30 0 -6 -5 -11 -11 -11 -6 0 -8 -7 -5 -16 6 -15 4
-15 -11 -3 -10 7 -15 10 -11 5 4 -5 0 -15 -8 -23 -8 -8 -11 -20 -7 -26 3 -7 3
-9 -1 -5 -10 8 -36 -14 -29 -24 2 -5 -4 -8 -14 -8 -15 0 -16 -2 -3 -10 11 -7
11 -10 2 -10 -7 0 -10 -4 -7 -10 3 -6 -1 -7 -10 -4 -10 4 -15 2 -13 -7 2 -8
-3 -13 -11 -11 -12 3 -12 1 0 -14 8 -10 10 -15 4 -12 -5 3 -16 0 -23 -8 -7 -8
-10 -14 -7 -14 3 0 0 -6 -7 -14 -7 -8 -17 -12 -21 -9 -5 3 -4 -5 3 -17 8 -15
8 -20 1 -16 -14 9 -39 -15 -33 -32 2 -6 -1 -12 -7 -12 -6 0 -16 -11 -23 -25
-6 -13 -15 -22 -21 -18 -6 3 -7 1 -4 -4 4 -6 0 -16 -9 -23 -8 -7 -13 -19 -10
-27 3 -8 2 -11 -4 -8 -5 3 -14 -4 -20 -15 -6 -11 -7 -20 -3 -20 4 0 0 -7 -11
-15 -10 -7 -15 -19 -11 -25 3 -6 1 -9 -6 -8 -7 2 -14 -3 -15 -9 -1 -7 -2 -18
-3 -24 0 -5 -5 -8 -10 -5 -4 3 -16 -14 -26 -39 -10 -24 -22 -42 -27 -39 -4 3
-8 -6 -8 -20 0 -17 -6 -26 -16 -26 -8 0 -13 -4 -10 -9 4 -5 0 -12 -6 -14 -10
-4 -10 -6 -1 -6 8 -1 5 -9 -7 -21 -25 -25 -27 -48 -2 -29 15 13 16 12 4 -3 -8
-10 -19 -16 -25 -15 -6 1 -13 -7 -15 -17 -2 -11 -11 -26 -19 -34 -8 -8 -12
-21 -9 -28 3 -8 1 -14 -4 -14 -6 0 -10 -7 -10 -16 0 -8 -5 -12 -10 -9 -7 4 -9
-3 -6 -19 3 -18 1 -23 -10 -19 -13 5 -18 -13 -17 -55 1 -8 -5 -11 -14 -8 -11
5 -13 2 -9 -9 3 -9 -1 -18 -9 -22 -13 -4 -13 -8 -3 -21 11 -13 11 -14 -1 -7
-11 6 -13 4 -8 -8 4 -10 2 -16 -6 -14 -7 1 -11 -8 -11 -20 1 -13 -3 -20 -9
-16 -6 4 -8 -4 -5 -20 4 -19 1 -24 -10 -19 -11 4 -14 1 -9 -11 3 -9 2 -17 -3
-17 -4 0 -11 -13 -15 -30 -3 -16 -16 -41 -28 -56 -20 -27 -21 -28 -2 -21 18 6
18 5 4 -5 -9 -7 -14 -19 -11 -27 3 -8 0 -11 -6 -7 -5 3 -13 -1 -16 -10 -4 -10
-2 -13 7 -8 9 6 9 5 0 -8 -7 -8 -10 -18 -6 -21 3 -4 1 -7 -5 -7 -7 0 -12 -9
-12 -21 0 -11 -4 -18 -9 -15 -5 4 -7 -4 -3 -16 4 -16 2 -19 -9 -13 -12 8 -12
6 0 -8 10 -13 10 -17 1 -17 -7 0 -10 -7 -6 -16 4 -9 2 -13 -5 -8 -8 4 -9 -1
-4 -16 4 -12 3 -20 -2 -17 -4 3 -13 -6 -20 -19 -8 -18 -8 -22 0 -17 7 4 6 -1
-2 -10 -7 -9 -10 -17 -6 -17 4 0 0 -12 -10 -26 -9 -14 -14 -28 -11 -32 3 -3 6
1 6 8 0 7 3 11 6 8 3 -4 -2 -18 -11 -32 -9 -14 -14 -30 -10 -36 3 -5 -1 -13
-9 -16 -9 -3 -13 -11 -9 -18 13 -20 11 -35 -2 -30 -9 4 -12 -1 -10 -13 1 -10
-3 -28 -10 -39 -11 -16 -11 -24 -2 -34 9 -10 9 -11 0 -6 -7 4 -13 3 -13 -3 0
-5 -3 -17 -7 -27 -5 -12 -3 -15 6 -9 8 4 6 -3 -4 -18 -9 -15 -14 -31 -10 -37
3 -5 1 -10 -6 -10 -8 0 -7 -5 2 -17 12 -14 12 -16 0 -8 -11 6 -13 2 -9 -18 3
-15 1 -24 -3 -21 -5 3 -9 -4 -9 -16 0 -14 -4 -19 -12 -14 -10 6 -10 5 -1 -7
10 -12 10 -18 1 -27 -9 -9 -9 -12 2 -12 12 0 12 -2 2 -8 -7 -5 -13 -25 -14
-45 -1 -20 -5 -34 -9 -32 -4 3 -6 -3 -4 -12 1 -10 -2 -26 -7 -37 -8 -14 -7
-17 4 -10 11 6 11 5 0 -8 -11 -14 -10 -18 5 -27 17 -11 17 -11 -1 -9 -14 2
-19 -4 -22 -25 -2 -19 1 -25 9 -20 7 3 4 -3 -6 -14 -13 -14 -15 -23 -7 -28 8
-5 8 -11 -1 -22 -17 -20 -19 -55 -5 -72 9 -12 8 -13 -3 -6 -11 6 -13 2 -9 -18
3 -16 1 -24 -5 -20 -6 4 -8 -3 -4 -17 3 -13 2 -32 -4 -42 -7 -13 -6 -18 3 -18
8 0 9 -3 3 -8 -12 -9 -13 -32 -1 -51 6 -10 5 -12 -2 -7 -7 4 -12 0 -13 -11 0
-10 -2 -26 -4 -36 -3 -14 1 -17 13 -13 15 5 15 4 2 -6 -8 -7 -15 -22 -15 -33
1 -11 -4 -23 -10 -27 -6 -5 -5 -8 4 -8 11 0 11 -3 0 -17 -12 -15 -12 -16 1 -8
13 8 13 7 1 -9 -13 -15 -13 -19 0 -27 8 -5 9 -9 3 -9 -13 0 -13 -62 1 -72 6
-5 5 -8 -2 -8 -7 0 -13 -7 -13 -16 0 -9 5 -12 12 -8 9 5 9 2 -1 -9 -10 -12
-10 -17 -2 -17 8 0 7 -6 -3 -16 -17 -17 -22 -39 -7 -30 11 7 8 -21 -4 -31 -4
-4 -5 -2 0 6 5 9 4 12 -3 7 -6 -4 -9 -13 -6 -21 4 -8 11 -12 18 -8 8 5 8 3 0
-8 -14 -19 -11 -45 6 -41 11 3 11 1 0 -13 -17 -20 -21 -43 -10 -50 5 -3 5 -19
0 -36 -7 -25 -7 -29 4 -20 10 8 12 6 11 -9 -1 -11 -4 -23 -8 -26 -4 -4 -1 -14
6 -22 9 -13 9 -14 0 -8 -7 4 -13 3 -13 -3 0 -5 5 -13 10 -16 8 -5 8 -11 0 -20
-8 -10 -8 -15 0 -20 8 -5 8 -10 0 -20 -8 -10 -7 -14 2 -18 10 -4 10 -6 -1 -6
-11 -1 -11 -4 0 -18 12 -15 12 -16 -1 -8 -12 7 -13 6 -4 -6 16 -21 26 -51 14
-44 -11 7 -9 -23 3 -42 5 -8 3 -13 -3 -13 -7 0 -8 -6 -2 -18 5 -9 7 -23 4 -31
-3 -10 0 -11 9 -5 11 6 12 5 3 -7 -5 -8 -9 -23 -8 -34 1 -11 5 -42 8 -69 3
-27 11 -53 18 -58 8 -4 9 -8 2 -8 -6 0 -11 -7 -11 -15 0 -8 3 -15 7 -15 4 0 6
-16 5 -35 -1 -22 4 -36 13 -40 12 -4 12 -8 1 -22 -11 -13 -11 -17 -1 -20 6 -3
12 -9 12 -14 0 -6 -5 -7 -12 -3 -7 5 -8 3 -2 -7 8 -14 15 -44 18 -84 0 -11 8
-26 16 -33 8 -8 9 -11 3 -7 -18 9 -16 -10 2 -25 12 -10 13 -16 3 -27 -9 -11
-9 -16 2 -23 7 -4 10 -15 7 -24 -4 -9 -2 -16 2 -16 5 0 7 -10 3 -22 -4 -16 -2
-19 9 -13 12 8 12 6 0 -8 -12 -15 -9 -21 12 -18 4 0 7 -3 7 -9 0 -5 -5 -10
-12 -10 -6 0 -4 -6 7 -13 14 -11 15 -16 5 -22 -9 -6 -11 -4 -5 5 5 9 4 11 -3
6 -15 -9 -15 -12 3 -29 8 -8 16 -30 17 -49 1 -18 8 -44 15 -57 6 -14 10 -28 7
-33 -3 -4 -1 -8 4 -8 5 0 9 -10 9 -22 1 -41 3 -49 12 -43 6 3 8 -4 6 -15 -2
-11 0 -20 5 -20 4 0 6 -9 3 -20 -4 -15 0 -20 13 -20 16 0 17 -2 4 -10 -8 -5
-10 -10 -3 -10 6 0 9 -9 6 -20 -3 -11 0 -20 6 -20 6 0 8 -7 4 -17 -5 -12 -3
-14 7 -8 10 6 12 4 7 -8 -3 -10 -2 -17 4 -17 6 0 7 -5 4 -11 -4 -6 1 -17 11
-25 11 -9 13 -13 7 -9 -14 7 -18 -7 -6 -19 5 -4 8 -13 8 -19 1 -7 6 -11 13
-10 8 2 9 -4 2 -23 -6 -14 -7 -23 -2 -20 4 2 12 -7 19 -20 8 -18 8 -23 0 -18
-7 3 -5 0 4 -8 9 -7 14 -19 12 -25 -3 -7 -1 -13 4 -13 5 0 9 -10 10 -22 1 -11
8 -25 15 -29 10 -7 10 -9 -2 -9 -13 0 -13 -2 0 -9 8 -6 18 -7 23 -4 5 3 4 -3
-1 -14 -9 -15 -7 -22 8 -33 15 -10 16 -16 7 -22 -9 -6 -9 -8 1 -8 6 0 12 -9
12 -20 0 -11 5 -20 11 -20 5 0 7 -4 4 -10 -3 -5 -1 -10 5 -10 6 0 8 -4 5 -10
-3 -5 -1 -10 5 -10 6 0 8 -4 5 -10 -3 -5 -2 -10 4 -10 5 0 8 -9 6 -20 -2 -11
0 -20 6 -20 5 0 9 -7 9 -15 0 -9 6 -18 14 -21 8 -3 13 -13 12 -22 -3 -20 15
-42 29 -34 6 3 3 -3 -5 -13 -13 -17 -13 -18 1 -13 12 5 15 1 13 -18 -1 -17 3
-24 14 -24 15 0 15 -2 2 -10 -12 -8 -12 -10 5 -11 11 0 14 -3 7 -6 -9 -3 -7
-10 9 -24 13 -11 17 -19 9 -19 -8 0 -4 -8 9 -19 12 -11 21 -21 20 -23 -6 -9
14 -48 22 -43 5 3 6 0 3 -8 -3 -9 4 -22 18 -31 14 -10 17 -16 8 -16 -9 0 -6
-6 8 -16 12 -8 22 -24 22 -35 0 -11 11 -31 24 -44 15 -15 20 -26 13 -29 -7 -2
-4 -5 6 -5 15 -1 22 -19 18 -44 -1 -5 3 -6 9 -2 5 3 10 -1 10 -10 0 -9 5 -13
10 -10 6 3 10 -1 10 -10 0 -9 8 -24 18 -33 10 -10 13 -15 7 -12 -6 3 -3 -2 7
-11 9 -9 14 -19 11 -23 -4 -3 -1 -6 5 -6 7 0 12 -5 12 -12 0 -6 10 -23 23 -36
12 -14 16 -22 8 -17 -9 5 -12 4 -7 -3 4 -7 14 -12 22 -12 9 0 12 -5 8 -12 -5
-8 -2 -9 10 -5 9 4 15 3 11 -2 -7 -13 5 -42 16 -35 5 3 6 -3 2 -12 -5 -14 -3
-16 12 -11 16 7 16 5 4 -10 -8 -9 -9 -14 -3 -10 6 3 17 -5 24 -18 7 -14 17
-25 22 -25 4 0 8 -5 8 -11 0 -7 8 -18 18 -26 9 -8 11 -11 4 -8 -11 6 -11 3 -1
-13 7 -12 25 -24 39 -28 14 -3 19 -9 13 -11 -7 -3 -13 -9 -13 -14 0 -6 4 -8 8
-5 10 6 52 -39 52 -55 0 -5 5 -7 12 -3 8 5 9 2 5 -9 -5 -12 -1 -17 13 -17 14
0 18 -6 15 -21 -3 -12 -2 -19 1 -16 7 6 74 -60 74 -73 0 -4 11 -15 24 -24 14
-8 27 -25 31 -36 4 -12 9 -19 12 -16 7 6 43 -32 43 -46 0 -4 3 -7 8 -7 16 3
32 -1 31 -8 -3 -20 15 -53 32 -58 10 -4 19 -13 19 -21 0 -8 4 -12 10 -9 5 3
10 1 10 -5 0 -6 3 -9 8 -7 9 6 33 -19 25 -27 -4 -3 -1 -6 6 -6 6 0 25 -13 40
-29 16 -16 32 -27 36 -23 3 3 3 -1 -1 -11 -4 -10 -1 -17 6 -17 7 0 24 -13 40
-29 21 -23 30 -27 39 -18 10 9 11 8 6 -4 -4 -10 0 -19 10 -23 9 -3 13 -10 10
-16 -3 -5 3 -10 15 -10 12 0 24 -9 29 -22 5 -13 11 -22 15 -20 14 5 27 1 22
-7 -3 -5 1 -14 9 -21 13 -11 15 -10 9 6 -5 17 -4 17 7 -1 21 -34 38 -47 51
-39 7 4 10 4 6 0 -8 -9 35 -56 51 -56 6 0 15 -8 20 -18 6 -9 11 -13 11 -8 0 5
9 -1 20 -14 11 -13 20 -20 20 -16 0 4 12 -4 27 -18 20 -19 29 -22 35 -13 5 8
8 5 8 -9 0 -12 7 -25 16 -28 10 -4 13 -2 9 7 -4 6 2 1 13 -12 13 -16 24 -21
33 -16 12 8 12 6 1 -8 -12 -14 -11 -16 7 -12 14 3 21 -1 21 -12 0 -9 3 -14 6
-10 3 3 15 -3 27 -14 11 -10 27 -19 34 -19 7 0 13 -4 13 -10 0 -5 7 -10 15
-10 8 0 15 -5 15 -11 0 -6 7 -8 16 -5 8 3 13 2 10 -2 -3 -4 4 -14 16 -21 16
-10 19 -10 13 1 -4 7 4 0 19 -17 14 -17 25 -24 26 -16 0 10 5 8 17 -6 10 -11
38 -30 63 -44 25 -13 56 -32 69 -42 19 -14 26 -15 33 -5 5 9 8 8 8 -6 0 -12 5
-16 16 -12 8 3 12 2 9 -4 -3 -6 -1 -10 5 -10 6 0 20 -9 32 -20 12 -11 28 -20
35 -20 7 0 29 -9 49 -20 20 -12 39 -19 42 -16 3 3 10 -2 17 -11 7 -9 21 -17
31 -18 28 -2 45 -15 37 -28 -4 -7 2 -5 12 3 11 9 16 10 11 2 -5 -8 0 -12 14
-12 12 0 28 -7 37 -15 8 -8 19 -13 24 -10 5 4 9 1 9 -5 0 -6 5 -8 10 -5 6 3
10 1 10 -5 0 -6 5 -8 10 -5 6 3 10 1 10 -4 0 -6 5 -11 11 -11 5 0 7 6 3 12 -4
7 4 3 18 -9 13 -13 32 -23 41 -23 9 0 17 -4 17 -10 0 -5 6 -7 14 -4 7 3 20 -2
28 -10 12 -11 18 -12 28 -3 10 10 12 8 7 -6 -6 -15 -3 -17 13 -12 11 4 20 2
20 -4 0 -6 9 -11 19 -11 11 0 23 -5 26 -11 4 -6 13 -8 21 -5 8 3 14 1 14 -5 0
-6 6 -9 14 -6 8 3 17 1 20 -6 3 -9 8 -8 15 3 9 13 11 12 11 -3 0 -10 5 -15 10
-12 6 3 10 1 10 -5 0 -6 4 -9 9 -5 5 3 13 0 16 -6 4 -5 13 -8 20 -5 8 3 16 0
19 -7 3 -8 5 -7 5 2 1 11 5 10 17 -5 8 -10 12 -12 8 -4 -7 12 -5 13 8 3 8 -7
18 -10 21 -6 4 3 9 -1 13 -10 3 -9 12 -13 20 -10 8 3 21 -1 30 -8 13 -10 17
-10 25 2 7 11 9 10 9 -5 0 -11 3 -16 7 -13 3 4 12 2 19 -4 8 -7 14 -7 19 1 4
6 14 2 26 -12 12 -13 18 -18 15 -11 -4 6 -2 14 4 18 5 3 10 0 10 -7 0 -8 9
-14 20 -15 13 -1 18 3 14 10 -3 7 4 1 15 -12 12 -13 21 -19 21 -14 0 5 7 10
15 10 8 0 11 -5 8 -10 -4 -6 0 -8 10 -4 10 3 17 2 17 -3 0 -6 5 -10 11 -10 5
0 7 5 4 10 -9 15 2 12 19 -6 12 -12 16 -12 16 -2 0 10 2 10 8 1 4 -7 22 -13
40 -15 18 -1 32 -6 32 -11 0 -5 6 -4 14 2 10 9 15 8 19 -3 3 -9 15 -12 31 -9
18 4 26 1 26 -8 0 -11 2 -11 10 1 7 11 10 11 10 2 0 -7 8 -12 18 -10 9 1 23
-1 31 -6 11 -7 12 -6 6 5 -7 12 -6 12 7 1 14 -11 18 -10 28 5 9 14 10 15 6 1
-7 -22 4 -30 22 -15 13 9 14 9 8 0 -4 -7 -3 -13 1 -13 5 0 15 6 22 13 11 9 13
9 7 0 -5 -9 2 -13 21 -14 15 -1 31 -1 36 0 4 0 7 -3 7 -9 0 -5 5 -10 11 -10 5
0 8 4 5 8 -3 5 1 9 9 9 8 0 11 -5 8 -10 -4 -6 0 -8 9 -4 9 3 21 0 28 -6 10
-10 12 -8 6 8 -6 18 -5 19 7 3 8 -10 17 -15 20 -11 4 3 13 1 20 -5 8 -7 17 -9
21 -5 10 11 36 12 36 2 0 -10 29 -7 49 5 10 6 12 5 7 -2 -10 -16 7 -15 23 0 9
8 11 8 8 2 -9 -16 8 -20 70 -19 29 1 50 -1 48 -5 -3 -4 6 -7 20 -7 14 -1 22 4
19 9 -4 6 4 5 16 -2 18 -10 24 -9 31 1 6 9 9 10 9 2 0 -13 18 -12 39 1 9 6 12
5 8 0 -3 -6 10 -11 31 -11 20 -1 40 4 44 10 5 8 8 4 8 -8 0 -15 2 -17 9 -6 6
9 11 10 15 2 5 -7 13 -8 25 -2 9 5 23 6 31 1 7 -4 23 -4 36 0 12 5 25 6 29 2
10 -10 39 -8 47 3 5 6 8 5 8 -3 0 -10 4 -9 16 2 9 9 21 13 27 9 19 -13 127
-11 120 1 -5 8 -3 8 8 1 15 -12 64 -12 90 -1 9 4 32 5 52 3 29 -3 37 -1 38 12
0 11 2 12 6 3 4 -10 8 -10 21 0 12 10 14 10 8 0 -4 -6 -2 -12 3 -12 6 0 11 6
11 13 0 8 3 9 8 1 4 -6 16 -9 27 -7 11 3 35 6 53 7 17 0 32 4 32 8 0 4 7 5 15
2 8 -4 23 0 32 7 12 10 15 10 9 2 -4 -7 -3 -13 3 -13 5 0 13 5 17 11 4 8 9 7
15 -2 5 -8 9 -9 9 -3 0 11 2 11 57 15 20 1 30 6 26 13 -4 6 1 5 10 -3 11 -9
17 -10 17 -2 0 7 10 10 26 7 21 -4 25 -2 19 12 -5 14 -4 15 6 4 17 -16 32 -16
23 1 -5 9 -4 9 6 0 11 -10 18 -9 34 5 11 9 16 11 12 5 -4 -8 -1 -13 9 -13 10
0 13 5 9 12 -4 7 -3 8 5 4 6 -4 19 -2 28 6 14 11 16 11 8 -2 -8 -13 -7 -13 8
-1 14 11 17 11 17 0 0 -11 2 -11 9 -1 4 7 12 12 17 11 21 -4 35 2 28 12 -4 8
0 8 15 0 19 -10 24 -8 23 9 0 3 15 4 34 2 21 -3 34 0 34 7 0 7 5 9 11 5 6 -3
15 0 20 7 7 12 9 12 9 0 0 -11 4 -9 15 5 10 13 14 14 15 5 0 -11 3 -11 15 -1
9 7 18 10 22 6 3 -3 17 1 31 10 13 9 21 11 17 5 -3 -6 10 -2 30 9 20 11 34 16
30 10 -3 -5 -1 -10 4 -10 6 0 11 5 11 10 0 6 11 10 25 10 14 0 25 4 25 8 0 5
6 9 13 10 36 3 64 9 77 17 8 5 24 11 35 12 10 2 22 7 25 11 6 8 25 14 53 17
10 1 22 7 26 14 5 7 11 12 15 12 22 -3 36 0 32 7 -3 5 5 8 17 7 12 -1 31 5 41
14 11 9 16 10 12 3 -6 -10 -2 -10 18 -1 14 7 23 16 20 20 -3 5 2 6 10 3 9 -3
16 -1 16 6 0 6 5 8 10 5 6 -3 10 -2 10 4 0 6 7 8 15 5 8 -4 15 -2 15 3 0 5 10
9 21 10 12 1 39 14 61 28 22 15 37 22 33 15 -4 -7 6 -5 24 5 18 9 29 20 27 24
-3 4 6 6 21 3 22 -4 25 -2 20 12 -4 10 -3 15 4 11 5 -4 16 -1 24 5 8 7 15 9
15 6 0 -4 9 -2 20 4 12 6 18 16 14 23 -5 9 -4 9 6 0 10 -9 17 -7 33 8 11 10
29 19 39 19 10 0 18 4 18 10 0 5 7 6 17 3 11 -4 14 -3 9 5 -7 11 6 17 28 13 5
-1 6 4 3 12 -3 7 1 14 9 14 7 0 11 -5 8 -11 -3 -6 2 -2 10 8 9 11 16 16 16 11
0 -5 7 0 16 11 8 10 12 12 8 4 -7 -13 -6 -13 12 0 10 8 22 19 25 23 3 5 9 8
13 8 15 -1 35 12 30 20 -3 5 3 6 12 2 13 -5 16 -2 12 9 -5 11 0 14 19 10 18
-3 24 -1 19 7 -4 6 -1 11 9 11 8 0 18 6 21 14 3 8 11 13 19 10 7 -3 15 2 18
10 4 9 13 16 22 16 8 0 15 5 15 11 0 5 5 7 12 3 8 -5 9 -2 4 11 -5 15 -4 16 9
5 8 -7 15 -8 15 -3 0 5 11 15 25 21 14 6 25 20 25 29 0 15 2 16 10 3 9 -13 14
-7 11 12 0 4 5 5 13 2 7 -3 20 6 29 20 11 16 24 24 37 21 11 -2 19 -1 17 3 -3
10 42 54 51 49 4 -3 16 5 27 16 11 11 14 16 6 12 -10 -5 -12 -4 -7 4 4 6 11 9
15 6 10 -6 53 30 45 38 -3 3 3 4 13 4 10 -1 17 3 16 10 -2 8 4 10 14 6 11 -4
14 -3 9 5 -4 7 -2 12 4 12 15 0 40 26 40 42 0 10 3 9 10 -2 8 -13 10 -13 10 2
0 9 5 20 12 24 7 5 8 3 3 -7 -5 -8 3 -2 18 14 14 15 33 27 41 27 10 0 13 6 9
17 -3 10 -3 15 2 11 4 -4 18 4 30 18 13 15 28 24 33 20 7 -4 9 1 7 13 -2 14 1
18 11 14 7 -3 17 2 20 11 3 9 10 13 15 10 5 -3 9 0 9 5 0 16 37 50 46 43 4 -4
4 -2 1 4 -7 13 28 45 39 36 4 -4 4 1 1 10 -4 12 -2 15 9 11 13 -5 19 8 15 31
-1 5 5 4 13 -4 13 -10 16 -10 16 3 0 8 7 17 15 21 8 3 15 10 15 16 0 15 25 40
39 40 6 0 10 3 10 8 -1 4 -1 14 0 22 1 13 2 13 11 0 7 -10 10 -11 10 -2 0 7
21 32 46 56 25 25 43 49 39 56 -3 6 -3 9 2 8 10 -4 59 44 55 55 -1 4 5 7 13 7
14 0 19 12 16 33 0 4 9 7 21 7 19 0 20 2 8 10 -11 7 -11 10 -2 10 7 0 10 4 7
10 -3 6 1 7 9 4 12 -4 16 0 16 16 0 11 5 18 10 15 6 -3 10 -1 10 5 0 6 4 8 10
5 6 -3 7 1 4 9 -4 11 0 16 10 16 9 0 16 6 16 14 0 7 12 26 26 41 14 16 23 34
19 43 -5 13 -3 13 12 1 11 -9 14 -10 9 -1 -4 7 -1 14 8 18 8 3 12 12 9 20 -3
8 1 14 11 14 9 0 15 6 14 13 -2 6 3 11 10 9 8 -1 11 2 8 7 -4 5 -2 12 4 16 6
4 8 11 5 16 -4 5 0 9 9 9 8 0 20 13 28 30 7 16 16 30 20 30 5 0 8 7 8 15 0 8
5 15 11 15 6 0 8 7 5 16 -3 8 -2 13 3 10 5 -3 17 6 26 20 12 18 13 24 4 19 -8
-3 -5 1 6 10 11 9 20 19 21 23 1 15 46 82 56 82 5 0 7 4 3 9 -3 5 1 16 9 24 8
8 12 17 9 21 -4 3 0 6 7 6 7 0 11 3 7 6 -3 3 1 13 9 22 8 10 13 20 12 23 -2 4
6 15 17 25 12 11 15 15 8 10 -10 -6 -12 -5 -7 7 3 8 12 18 20 21 9 3 12 10 9
16 -3 5 -1 10 5 10 7 0 9 7 6 16 -3 8 -2 13 2 10 4 -3 14 4 21 16 10 16 10 19
-1 13 -7 -3 -5 0 4 8 10 8 15 17 11 20 -3 4 -1 7 6 7 8 0 11 6 7 16 -3 8 -2
12 4 9 9 -5 12 1 9 21 0 3 8 12 18 21 10 8 11 11 3 7 -12 -6 -12 -4 1 12 9 10
14 25 11 33 -3 8 0 11 7 7 10 -6 15 6 12 27 0 4 3 7 8 7 5 0 12 7 15 16 4 10
2 13 -7 8 -8 -5 -8 -2 2 9 7 9 17 14 22 12 4 -3 6 5 4 17 -3 14 4 32 18 47 12
13 15 20 7 16 -13 -8 -13 -6 -1 8 7 9 11 23 8 31 -4 11 -1 13 10 9 12 -5 15
-2 10 10 -4 10 -2 17 4 17 7 0 9 11 7 24 -4 18 -1 23 9 19 8 -3 13 -2 12 3 -3
19 1 35 9 30 5 -3 8 11 7 30 0 20 3 38 9 41 5 3 6 1 2 -5 -4 -7 -5 -12 -2 -12
3 0 10 10 17 21 8 16 8 20 0 14 -6 -3 -3 9 8 29 14 25 17 36 8 40 -7 2 -4 5 6
5 10 1 15 6 12 11 -4 6 -1 17 5 25 10 12 10 15 -1 15 -8 0 -5 6 7 15 10 8 15
15 10 15 -5 0 -3 7 4 15 6 8 9 18 6 24 -3 5 0 11 8 14 9 4 12 14 9 28 -4 14
-2 20 4 16 6 -4 11 -1 10 6 -1 39 4 58 15 51 7 -5 8 -3 3 6 -4 7 -2 16 6 21
12 7 12 9 0 9 -11 0 -11 4 3 19 9 10 14 25 10 35 -3 9 -1 16 4 16 6 0 9 9 7
20 -2 11 1 20 7 20 6 0 5 7 -3 17 -12 14 -12 16 0 8 11 -6 13 -2 9 18 -3 15
-1 24 3 21 5 -3 9 4 9 16 0 12 4 18 10 15 7 -4 7 3 0 20 -7 19 -7 24 2 19 8
-5 9 0 6 14 -4 12 -2 22 4 22 6 0 8 7 4 15 -3 8 -2 15 2 15 4 0 9 17 10 37 2
21 7 40 11 43 4 3 8 26 7 52 -1 26 3 46 9 45 6 -1 9 10 8 25 -1 16 2 28 7 28
6 0 10 5 10 11 0 5 -6 7 -12 3 -9 -5 -9 -2 1 9 11 14 11 17 0 17 -11 0 -11 2
1 10 8 5 15 24 15 42 0 18 4 39 8 46 5 6 5 17 2 22 -4 6 -1 18 7 27 11 14 11
16 -2 8 -12 -6 -13 -5 -2 6 6 7 12 17 12 22 0 4 -6 5 -12 1 -9 -5 -9 -2 1 9 7
9 10 17 5 17 -5 0 -2 5 6 10 13 9 13 10 0 10 -13 0 -13 2 0 10 12 7 11 12 -5
32 -19 22 -19 22 -1 8 18 -14 19 -13 13 2 -3 10 -2 20 2 22 5 3 9 17 9 31 0
13 -5 22 -10 19 -6 -4 -5 3 1 15 7 12 9 26 6 31 -3 5 -1 12 5 15 8 5 7 12 -2
23 -10 12 -10 14 0 8 15 -9 16 6 1 21 -7 7 -7 13 0 17 5 4 8 13 5 20 -3 8 0
17 6 21 8 5 8 10 0 20 -8 10 -8 15 0 20 8 5 7 11 -2 23 -10 12 -10 14 0 8 7
-4 12 -1 12 8 0 9 -6 16 -12 16 -10 0 -10 2 0 9 17 11 17 21 0 32 -7 5 -8 9
-2 9 6 0 10 17 10 40 -1 22 1 40 5 40 5 0 5 22 0 63 -1 5 -6 5 -13 1 -7 -4 -8
-3 -4 5 4 6 11 9 15 6 5 -2 7 19 6 48 -1 28 -3 67 -4 85 -1 24 -5 31 -13 26
-10 -6 -10 -4 -2 7 12 16 12 29 1 46 -4 6 -3 14 3 18 5 3 10 11 10 16 0 6 -5
7 -11 3 -8 -5 -8 -1 0 13 7 14 7 24 -2 33 -9 10 -9 11 1 6 16 -9 16 6 0 23
-11 11 -10 12 0 6 11 -6 12 -3 3 13 -8 14 -8 23 -1 27 8 5 7 11 -1 21 -9 11
-8 18 2 31 12 15 12 16 -5 10 -16 -6 -17 -5 -6 8 10 12 10 15 -1 15 -11 0 -11
2 1 10 12 8 12 10 -5 10 -11 0 -15 4 -10 8 12 8 13 37 2 48 -4 4 -2 13 4 21 6
7 7 13 2 13 -5 0 -9 15 -10 33 -2 65 -3 68 -15 61 -8 -5 -8 -1 1 10 12 14 12
19 2 26 -11 6 -11 9 0 13 9 4 10 8 4 14 -6 4 -11 24 -13 43 -3 49 -7 68 -15
76 -12 13 -8 36 6 28 9 -6 9 -4 -1 8 -7 9 -11 22 -10 29 2 8 -3 13 -10 11 -9
-2 -11 2 -6 10 12 19 14 38 4 38 -5 0 -9 8 -9 18 -1 39 -5 52 -14 52 -5 0 -4
7 3 15 9 11 9 15 1 15 -7 0 -10 10 -7 25 3 13 0 28 -6 31 -7 5 -8 2 -3 -6 5
-9 4 -11 -4 -6 -7 5 -9 12 -3 19 9 13 8 19 -3 54 -4 13 -10 21 -14 19 -3 -2
-7 14 -8 36 0 22 -6 45 -12 51 -6 6 -11 16 -11 22 0 5 5 3 10 -5 6 -9 10 -10
10 -3 0 6 -5 15 -11 18 -6 4 -8 13 -5 21 3 8 1 14 -5 14 -6 0 -7 5 -4 10 3 6
2 10 -2 10 -8 0 -13 23 -16 68 0 6 -4 12 -9 12 -4 0 -7 6 -5 13 1 6 -4 11 -11
9 -10 -2 -10 2 -2 18 8 15 8 20 -1 20 -7 0 -9 3 -6 7 4 3 -1 15 -10 26 -10 11
-12 17 -5 13 6 -4 12 -2 12 3 0 6 -5 11 -11 11 -5 0 -8 4 -5 9 3 5 -1 12 -10
15 -13 5 -14 9 -4 20 9 12 7 19 -9 35 -12 12 -16 21 -9 21 9 0 9 3 0 12 -7 7
-12 20 -12 31 0 10 -4 15 -10 12 -6 -3 -7 1 -4 10 4 8 1 22 -6 30 -6 8 -9 19
-5 25 3 5 -2 10 -12 11 -11 0 -13 3 -5 6 10 4 9 9 -5 20 -10 8 -12 12 -5 8 6
-3 12 -1 12 4 0 6 -4 11 -10 11 -5 0 -10 9 -10 20 0 11 -5 20 -11 20 -5 0 -7
5 -4 10 3 6 2 10 -4 10 -6 0 -8 6 -5 14 3 8 0 17 -5 21 -6 3 -9 11 -6 16 4 5
-2 6 -12 2 -16 -6 -16 -5 -4 10 9 12 10 17 2 17 -7 0 -9 5 -6 10 3 6 1 10 -5
10 -6 0 -8 5 -5 10 3 6 1 10 -6 10 -7 0 -9 3 -6 7 4 3 -1 15 -10 26 -13 15
-14 18 -3 12 8 -5 2 8 -14 30 -16 21 -24 35 -18 31 7 -4 12 -3 12 1 0 5 -9 14
-20 21 -12 7 -17 18 -13 29 4 10 3 14 -5 9 -7 -4 -10 1 -7 14 2 11 -1 20 -8
20 -7 0 -14 10 -14 22 -1 13 -7 24 -13 26 -5 2 -10 12 -10 23 0 10 -4 19 -10
19 -5 0 -10 6 -10 14 0 8 -6 17 -12 19 -9 4 -9 6 2 6 10 1 7 6 -8 17 -14 9
-21 22 -18 31 3 8 2 12 -3 9 -7 -5 -22 28 -20 43 0 2 -4 7 -9 10 -6 3 -12 13
-14 21 -2 8 -13 25 -26 38 -12 13 -20 28 -17 33 4 5 1 9 -6 9 -7 0 -9 3 -6 7
4 3 -1 12 -11 20 -11 10 -12 12 -2 8 8 -4 4 3 -9 14 -13 12 -20 21 -16 21 3 0
-1 7 -9 16 -9 8 -16 21 -16 28 0 7 -9 22 -20 34 -12 12 -18 22 -15 22 3 0 -3
10 -14 22 -11 11 -18 26 -14 31 3 6 2 8 -3 5 -5 -3 -15 0 -22 8 -7 8 -10 14
-6 14 3 0 1 6 -5 13 -6 8 -8 17 -4 21 4 4 0 4 -10 0 -14 -5 -16 -2 -10 12 5
14 3 16 -11 11 -11 -4 -15 -3 -11 4 4 6 -1 17 -11 25 -11 9 -13 13 -6 9 6 -3
12 -1 12 4 0 6 -6 11 -14 11 -7 0 -20 8 -27 18 -13 16 -12 16 6 3 13 -10 12
-6 -5 12 -41 43 -49 55 -43 61 4 3 -1 6 -10 6 -14 0 -34 35 -29 52 1 5 -2 7
-7 5 -12 -3 -52 43 -46 54 3 4 -4 10 -15 14 -19 6 -25 18 -20 40 1 5 -1 7 -5
3 -10 -10 -35 17 -35 38 0 14 -2 15 -17 3 -9 -8 -14 -9 -10 -2 4 6 1 18 -7 26
-8 8 -12 17 -9 21 4 3 -1 6 -11 6 -9 0 -21 11 -28 25 -6 13 -15 22 -19 19 -5
-3 -6 3 -2 12 5 14 3 16 -11 11 -10 -4 -15 -3 -11 3 3 6 1 10 -4 10 -6 0 -11
7 -11 16 0 10 -5 14 -16 10 -8 -3 -12 -2 -9 3 3 5 -4 13 -16 16 -17 6 -19 9
-8 16 12 7 11 9 -1 10 -8 1 -18 1 -22 0 -5 0 -8 8 -8 20 0 11 -4 18 -9 15 -5
-3 -16 9 -25 27 -8 17 -16 28 -16 23 0 -5 -9 1 -19 13 -12 14 -25 20 -32 15
-8 -4 -9 -3 -5 4 4 7 2 12 -3 12 -6 0 -11 7 -11 16 0 8 -5 12 -10 9 -6 -3 -14
4 -19 17 -6 14 -10 17 -11 8 -1 -8 -8 -1 -15 15 -8 17 -14 27 -15 23 0 -4 -18
11 -39 32 -22 22 -47 40 -56 40 -9 0 -13 5 -10 10 3 6 1 10 -5 10 -6 0 -8 5
-5 10 3 6 0 10 -8 10 -8 0 -33 18 -55 41 -23 22 -42 35 -42 27 0 -10 -2 -10
-9 2 -6 8 -7 18 -5 22 3 4 -4 8 -15 8 -12 0 -21 7 -21 16 0 8 -4 13 -9 10 -5
-3 -12 1 -15 10 -4 9 -13 14 -22 10 -8 -3 -13 -2 -9 3 6 11 -49 53 -59 44 -3
-3 -6 1 -6 10 0 15 -5 18 -26 16 -4 0 -12 10 -19 23 -6 13 -17 22 -24 20 -7
-1 -21 6 -31 18 -9 11 -22 20 -29 20 -6 0 -11 5 -11 10 0 6 -7 10 -15 10 -8 0
-15 5 -15 10 0 6 -5 10 -10 10 -6 0 -20 9 -32 20 -12 11 -28 20 -35 20 -7 0
-13 5 -13 10 0 6 -7 10 -15 10 -8 0 -15 5 -15 10 0 6 -7 10 -15 10 -8 0 -15 5
-15 11 0 5 -4 8 -9 4 -5 -3 -21 6 -35 20 -14 14 -32 25 -41 25 -8 0 -15 5 -15
10 0 6 -7 10 -15 10 -8 0 -24 9 -34 19 -14 14 -21 16 -25 8 -2 -7 -5 -4 -5 5
-1 11 -8 16 -21 13 -11 -2 -19 1 -17 8 1 7 -4 11 -10 9 -7 -1 -13 2 -13 8 0 5
-5 10 -10 10 -6 0 -28 11 -51 25 -22 14 -45 24 -52 23 -17 -4 -68 37 -59 48 4
5 0 3 -10 -4 -14 -11 -19 -9 -32 10 -9 12 -16 19 -16 14 0 -5 -11 -1 -23 7
-13 8 -32 17 -43 19 -10 2 -27 12 -37 23 -10 11 -16 14 -12 8 3 -7 1 -13 -4
-13 -6 0 -11 5 -11 10 0 6 -3 9 -7 9 -20 -3 -33 2 -33 14 0 8 -11 12 -30 11
-19 -1 -28 2 -23 9 4 6 0 8 -11 4 -9 -4 -15 -3 -12 2 3 5 -1 11 -9 15 -8 3
-15 0 -15 -7 0 -7 -5 -4 -11 6 -6 9 -14 15 -19 12 -4 -3 -10 2 -14 10 -3 8
-12 12 -21 9 -8 -3 -15 -2 -15 3 0 9 -6 11 -50 15 -11 1 -20 6 -20 10 0 4 -7
8 -15 8 -8 0 -15 6 -15 13 0 8 -4 7 -10 -3 -6 -10 -10 -11 -10 -2 0 6 -9 12
-19 12 -11 0 -23 5 -26 10 -4 6 -10 8 -15 5 -5 -3 -11 -1 -15 5 -4 6 -11 8
-16 5 -5 -4 -9 -1 -9 5 0 6 -4 8 -10 5 -5 -3 -10 -2 -10 4 0 5 -11 8 -25 6
-14 -1 -25 1 -25 5 0 6 -16 10 -52 11 -10 0 -18 7 -18 14 0 9 -6 12 -15 9 -8
-3 -30 3 -49 14 -25 15 -37 17 -45 9 -8 -8 -11 -7 -11 3 0 7 -3 11 -6 7 -4 -3
-22 0 -41 8 -18 8 -31 10 -28 6 7 -13 -20 -7 -37 7 -8 6 -18 9 -21 5 -4 -3 -7
0 -7 8 0 11 -2 11 -10 -1 -8 -12 -10 -12 -10 -1 0 8 -3 12 -6 9 -3 -4 -17 0
-31 7 -19 10 -32 11 -46 3 -12 -6 -17 -6 -13 0 8 13 -19 23 -41 15 -10 -4 -14
-2 -10 4 3 5 0 10 -8 10 -8 0 -12 -4 -9 -9 3 -4 1 -8 -5 -8 -5 0 -11 5 -13 10
-2 6 -20 12 -41 13 -20 1 -37 5 -37 10 0 4 -5 7 -11 7 -5 0 -7 -6 -3 -12 5 -9
2 -8 -9 1 -10 8 -31 14 -47 13 -17 0 -30 4 -30 9 0 5 -5 9 -11 9 -5 0 -7 -6
-3 -12 5 -9 2 -9 -9 1 -14 11 -17 11 -17 0 0 -11 -2 -11 -8 -2 -11 17 -54 23
-70 10 -9 -7 -11 -5 -5 8 5 15 3 17 -13 11 -34 -14 -55 -15 -48 -4 5 7 -2 9
-20 6 -14 -3 -29 -2 -31 2 -3 5 -15 6 -27 2 -13 -3 -19 -1 -15 5 3 5 0 10 -8
10 -8 0 -11 -5 -8 -11 3 -6 0 -6 -7 1 -9 9 -19 9 -33 2 -14 -8 -18 -8 -13 0
10 15 -7 14 -23 -1 -11 -10 -13 -10 -7 0 7 11 -10 17 -41 13 -7 -1 -23 4 -35
10 -20 11 -21 10 -10 -3 10 -13 9 -15 -13 -10 -14 2 -25 8 -25 11 0 4 -7 8
-15 8 -8 0 -12 -4 -9 -9 3 -4 1 -8 -5 -8 -5 0 -11 5 -13 12 -3 7 -9 8 -19 3
-19 -12 -40 -15 -34 -5 6 10 -66 7 -84 -4 -9 -6 -12 -5 -8 1 6 10 -9 12 -108
14 -11 0 -23 5 -27 12 -4 7 -8 8 -9 2z"/>
<path d="M7375 9590 c3 -5 8 -10 11 -10 2 0 4 5 4 10 0 6 -5 10 -11 10 -5 0
-7 -4 -4 -10z"/>
</g>
</svg>
